<svg fill="#FFFFFF" xmlns="http://www.w3.org/2000/svg"  viewBox="0 0 48 48" width="96px" height="96px"><path d="M 11.691406 6.0078125 C 8.4660545 6.0078125 5.8183594 8.6544293 5.8183594 11.880859 L 5.8183594 26 A 1.50015 1.50015 0 1 0 8.8183594 26 L 8.8183594 11.880859 C 8.8183594 10.27529 10.086758 9.0078125 11.691406 9.0078125 L 35.306641 9.0078125 C 36.912624 9.0078125 38.179688 10.274876 38.179688 11.880859 L 38.179688 13.701172 A 1.50015 1.50015 0 1 0 41.179688 13.701172 L 41.179688 11.880859 C 41.179688 8.6548432 38.532657 6.0078125 35.306641 6.0078125 L 11.691406 6.0078125 z M 20.517578 15.378906 C 17.692578 15.649906 15.550781 17.337891 15.550781 17.337891 C 15.550781 17.337891 13.004406 21.003016 12.566406 28.166016 C 15.137406 31.105016 19.03125 31.121094 19.03125 31.121094 L 19.835938 30.046875 C 18.462937 29.574875 16.897781 28.724547 15.550781 27.185547 C 17.159781 28.392547 19.582 29.373047 23.5 29.373047 C 27.418 29.373047 29.840219 28.392547 31.449219 27.185547 C 30.102219 28.724547 28.537063 29.574875 27.164062 30.046875 L 27.96875 31.121094 C 27.96875 31.121094 31.861594 31.105016 34.433594 28.166016 C 33.996594 21.003016 31.449219 17.337891 31.449219 17.337891 C 31.449219 17.337891 29.176422 15.579906 26.482422 15.378906 L 26.246094 15.859375 C 28.678094 16.445375 29.787172 17.294937 30.951172 18.335938 C 28.948172 17.312938 26.964 16.253906 23.5 16.253906 C 20.036 16.253906 18.051828 17.311937 16.048828 18.335938 C 17.211828 17.294937 18.540906 16.349375 20.753906 15.859375 L 20.517578 15.378906 z M 39.658203 17.478516 A 1.50015 1.50015 0 0 0 38.181641 19 L 38.181641 39.425781 L 32.736328 35.191406 L 32.730469 35.185547 A 1.50015 1.50015 0 0 0 30.820312 37.494141 L 11.691406 37.494141 C 10.086758 37.494141 8.8183594 36.226663 8.8183594 34.621094 L 8.8183594 31.957031 A 1.50015 1.50015 0 1 0 5.8183594 31.957031 L 5.8183594 34.621094 C 5.8183594 37.847524 8.4660546 40.494141 11.691406 40.494141 L 34.667969 40.494141 L 38.759766 43.677734 A 1.50015 1.50015 0 0 0 41.181641 42.492188 L 41.181641 19 A 1.50015 1.50015 0 0 0 39.658203 17.478516 z M 20.439453 22.375 C 21.401453 22.375 22.1875 23.3555 22.1875 24.5625 C 22.1875 25.7705 21.401453 26.748047 20.439453 26.748047 C 19.477453 26.748047 18.689453 25.7695 18.689453 24.5625 C 18.689453 23.3555 19.477453 22.375 20.439453 22.375 z M 26.560547 22.375 C 27.522547 22.375 28.310547 23.3555 28.310547 24.5625 C 28.311547 25.7705 27.522547 26.748047 26.560547 26.748047 C 25.598547 26.748047 24.8125 25.7695 24.8125 24.5625 C 24.8125 23.3555 25.598547 22.375 26.560547 22.375 z"/></svg>