<?xml version="1.0" encoding="UTF-8"?>
<svg xmlns="http://www.w3.org/2000/svg" xmlns:xlink="http://www.w3.org/1999/xlink" width="80pt" height="80pt" viewBox="0 0 80 80" version="1.1">
<g id="surface1">
<path style=" stroke:none;fill-rule:nonzero;fill:rgb(73%,73%,73%);fill-opacity:1;" d="M 27.503906 75.367188 C -7.449219 63.175781 -5.191406 12.320312 30.640625 3.480469 C 61.609375 -4.160156 87.351562 27.183594 73.625 56.105469 C 68.070312 67.808594 55.679688 77.199219 41.871094 77.007812 C 36.871094 76.9375 32.824219 77.222656 27.503906 75.367188 Z M 27.503906 75.367188 "/>
<path style=" stroke:none;fill-rule:nonzero;fill:rgb(41%,41%,41%);fill-opacity:1;" d="M 71.152344 39.863281 C 71.152344 48.054688 67.78125 56.191406 61.992188 61.980469 C 56.199219 67.773438 48.0625 71.144531 39.871094 71.144531 C 31.683594 71.144531 23.542969 67.773438 17.753906 61.980469 C 11.964844 56.191406 8.59375 48.054688 8.59375 39.863281 C 8.59375 31.675781 11.964844 23.535156 17.753906 17.746094 C 23.542969 11.957031 31.683594 8.585938 39.871094 8.585938 C 48.0625 8.585938 56.199219 11.957031 61.992188 17.746094 C 67.78125 23.535156 71.152344 31.675781 71.152344 39.863281 Z M 71.152344 39.863281 "/>
<path style=" stroke:none;fill-rule:nonzero;fill:rgb(73%,73%,73%);fill-opacity:1;" d="M 34.34375 30.199219 L 45.414062 30.199219 C 45.609375 30.199219 45.769531 30.355469 45.769531 30.550781 L 45.769531 31.847656 C 45.769531 32.042969 45.609375 32.199219 45.414062 32.199219 L 34.34375 32.199219 C 34.148438 32.199219 33.992188 32.042969 33.992188 31.847656 L 33.992188 30.550781 C 33.992188 30.355469 34.148438 30.199219 34.34375 30.199219 Z M 34.34375 30.199219 "/>
<path style=" stroke:none;fill-rule:nonzero;fill:rgb(73%,73%,73%);fill-opacity:1;" d="M 35.828125 38.203125 L 43.941406 38.230469 C 44.40625 38.230469 44.777344 38.609375 44.777344 39.074219 L 44.777344 39.394531 C 44.773438 39.859375 44.398438 40.230469 43.933594 40.230469 L 35.820312 40.203125 C 35.355469 40.199219 34.980469 39.824219 34.984375 39.359375 L 34.984375 39.039062 C 34.984375 38.574219 35.363281 38.199219 35.828125 38.203125 Z M 35.828125 38.203125 "/>
<path style=" stroke:none;fill-rule:nonzero;fill:rgb(73%,73%,73%);fill-opacity:1;" d="M 34.53125 46.789062 L 45.296875 46.808594 C 45.671875 46.808594 45.96875 47.109375 45.96875 47.484375 L 45.96875 48.332031 C 45.964844 48.703125 45.667969 49.003906 45.292969 49 L 34.527344 48.984375 C 34.152344 48.980469 33.855469 48.683594 33.855469 48.308594 L 33.855469 47.460938 C 33.855469 47.089844 34.15625 46.789062 34.53125 46.789062 Z M 34.53125 46.789062 "/>
</g>
</svg>
